<?xml version="1.0" encoding="UTF-8"?>
<svg width="1824px" height="1440px" viewBox="0 0 1824 1440" version="1.1" xmlns="http://www.w3.org/2000/svg" xmlns:xlink="http://www.w3.org/1999/xlink">
    <!-- Generator: Sketch 47.1 (45422) - http://www.bohemiancoding.com/sketch -->
    <title>Page 1</title>
    <desc>Created with Sketch.</desc>
    <defs></defs>
    <g id="Page-1" stroke="none" stroke-width="1" fill="none" fill-rule="evenodd">
        <g id="Artboard" transform="translate(-1056.000000, 0.000000)" fill="#191A27">
            <path d="M3178,1016.39617 C3164.42392,1003.54742 3136.42879,983.570826 3094.10976,956.37323 C3067.79938,938.74137 3033.44034,915.951379 2991.02543,887.90866 C2875.20896,812.692709 2790.94241,761.111393 2738.22818,733.068673 C2699.84001,713.092318 2609.9576,660.292055 2468.58098,574.663324 C2332.72672,492.225413 2258.85537,447.77002 2246.87105,441.393183 C2202.86703,418.978455 2052.31281,331.757675 1795.01424,179.645131 C1620.024,75.6373753 1483.03842,-5.58086973 1384,-64 L1384,1845.95407 L1563.7648,1966 C1670.77999,1905.13189 1773.02302,1845.10894 1870.49149,1785.93112 C2119.81329,1635.49922 2295.55136,1533.83476 2397.80158,1481.03858 C2456.97536,1450.55893 2530.84671,1408.54287 2619.5115,1354.9904 C2747.40577,1278.92932 2817.25279,1237.66475 2829.23711,1231.28791 C2906.01106,1194.52506 2976.32546,1158.04072 3040.18032,1122.02695 C3128.84511,1071.6629 3174.81696,1036.40062 3178,1016.42498 L3178,1016.39617 Z M1463,76.0213529 C1488.87918,93.6406369 1522.91235,115.569853 1565,141.999499 L1565,1807 C1530.20968,1788.63096 1496.17894,1766.2327 1463,1739.89663 L1463,76 L1463,76.0213529 Z M1641.00958,197 C1689.76171,230.566062 1768.3611,279.791805 1876.99938,344.581216 C2016.70158,426.998571 2177.65162,518.604348 2359.63392,619.489757 C2772.46516,868.234821 2997.2299,1002.70069 3034,1022.67135 L2345.30916,1412.72319 C1996.38843,1602.40361 1763.57499,1734.798 1646.98862,1810 L1641,197.009601 L1641.00958,197 Z M1756.8085,358.539 C1755.14825,356.879 1753.87875,356 1753,356 C1753,356.879 1753.3905,357.66025 1754.2695,358.539 L1756.8085,358.539 L1756.8085,358.539 Z M2662.72876,907.056745 C2637.8759,893.478207 2578.32699,858.266927 2483.88996,801.520476 C2393.39261,746.363433 2344.25108,716.867073 2336.18686,712.839611 C2306.55165,697.669267 2206.20631,639.328851 2034.86514,537.817646 C1917.2654,469.082304 1825.64209,415.143089 1760,376 L1760,1348.1285 L1760,1351.68705 L1760,1649 C1830.42924,1608.2651 1898.41929,1568.27817 1964.06618,1529.13508 C2131.37164,1428.46772 2248.60646,1360.48034 2315.82826,1325.36471 C2355.77961,1304.57558 2405.3893,1276.57489 2464.65732,1241.45926 C2549.43362,1191.07764 2596.32562,1163.54706 2605.04765,1158.77164 C2655.50242,1134.79866 2702.29839,1110.3582 2745.53161,1085.63486 C2804.706,1052.01755 2835.56081,1028.88601 2838,1016.05807 C2827.59046,1007.34916 2805.17656,991.711107 2770.75899,969.329929 C2734.74731,946.94899 2698.73564,926.159378 2662.72396,907.055307 L2662.72876,907.056745 Z M2292.5444,747.912057 C2396.69897,811.132578 2483.12092,863.566614 2552,905.214165 L2102.82305,1158.5717 C1987.50091,1220.94938 1891.41514,1273.75801 1814.56574,1317 L1811,467 C1843.74843,490.168371 1896.67007,522.622917 1969.48627,564.270467 C2063.22514,620.267981 2170.85322,681.519464 2292.55065,747.928866 L2292.5444,747.912057 Z M1813,1542.99039 L1813,1391.68783 C1962.95679,1300.41834 2069.44583,1238.41618 2132.55807,1205.58529 C2172.38556,1184.76125 2221.84143,1156.71356 2280.92569,1121.53898 C2365.43913,1071.07277 2412.18575,1043.49598 2420.88073,1038.71254 C2471.17906,1014.69931 2517.82994,990.217821 2560.92912,965.452975 C2577.66379,955.791492 2592.43498,947.067965 2605.24411,939 C2680.97162,984.68037 2725.28421,1011.03969 2738,1018.26287 L2279.72424,1278.85446 C2046.00072,1405.29853 1890.42438,1493.37906 1813.02393,1543 L1813,1542.99039 Z" id="Page-1" transform="translate(2281.000000, 951.000000) rotate(30.000000) translate(-2281.000000, -951.000000) "></path>
        </g>
    </g>
</svg>